<svg version="1.1" id="Layer_1" xmlns="http://www.w3.org/2000/svg" xmlns:xlink="http://www.w3.org/1999/xlink" x="0px" y="0px"
	 width="100%" viewBox="0 0 1280 1280" enable-background="new 0 0 1280 1280" xml:space="preserve">
<path fill="#E4E6E7" opacity="1.000000" stroke="none" 
	d="
M841.000000,1281.000000 
	C560.666687,1281.000000 280.833344,1281.000000 1.000000,1281.000000 
	C1.000000,854.333313 1.000000,427.666656 1.000000,1.000000 
	C427.666656,1.000000 854.333313,1.000000 1281.000000,1.000000 
	C1281.000000,427.666656 1281.000000,854.333313 1281.000000,1281.000000 
	C1134.500000,1281.000000 988.000000,1281.000000 841.000000,1281.000000 
M748.500000,1277.938721 
	C915.983948,1277.938843 1083.467896,1277.939331 1250.951904,1277.937378 
	C1257.240356,1277.937256 1257.616455,1277.508911 1256.819702,1271.530029 
	C1255.899048,1264.621704 1255.027222,1257.706787 1254.072021,1250.803345 
	C1249.591431,1218.419678 1239.935547,1187.546143 1226.336426,1157.915283 
	C1206.117432,1113.860718 1178.176636,1075.008911 1143.929321,1040.975342 
	C1126.158691,1023.315613 1107.010376,1006.842468 1087.222778,991.455750 
	C1051.743530,963.867493 1012.891052,941.618774 971.998352,922.920471 
	C918.795166,898.593323 863.419250,881.248535 806.097900,869.657166 
	C763.008362,860.943726 719.482849,856.148132 675.672302,854.327515 
	C651.585327,853.326538 627.379517,854.077942 603.269653,855.069580 
	C582.715454,855.914917 562.110046,857.394775 541.729187,860.109436 
	C515.423218,863.613159 489.143616,867.782593 463.162720,873.162659 
	C407.862488,884.614258 354.736908,902.923950 303.781494,927.260437 
	C264.316193,946.109131 227.070984,968.661926 192.487823,995.577271 
	C161.344543,1019.815491 133.205933,1047.038452 108.584038,1077.883545 
	C90.027573,1101.130127 74.361336,1126.176147 61.382011,1152.951782 
	C46.684753,1183.271484 36.775940,1215.065796 31.492798,1248.296753 
	C29.967560,1257.890503 29.154085,1267.597412 28.044050,1277.000488 
	C28.996401,1277.484619 29.286804,1277.761475 29.577301,1277.761597 
	C268.884857,1277.832886 508.192444,1277.885620 748.500000,1277.938721 
M931.773987,389.770538 
	C923.420898,371.282684 916.171936,352.193695 906.497803,334.425079 
	C882.129395,289.667480 848.414734,253.024063 806.105103,224.505539 
	C761.626160,194.524780 712.403442,178.282089 658.943848,175.187286 
	C635.464966,173.828094 612.095520,175.891266 589.020508,180.521027 
	C559.770142,186.389801 532.074829,196.529221 505.920929,210.963867 
	C471.391663,230.020966 441.731079,254.927536 416.613037,285.208923 
	C395.761841,310.346405 379.116547,338.086914 366.323151,368.185730 
	C350.009979,406.565582 341.107605,446.636017 339.209656,488.168854 
	C338.467560,504.408356 338.733765,520.832092 340.300049,537.001526 
	C341.991943,554.467651 344.900970,571.924316 348.773071,589.047302 
	C356.050598,621.229126 368.614258,651.471619 385.021759,680.119995 
	C404.178040,713.567871 428.708710,742.567627 458.152222,767.279602 
	C489.789520,793.832947 525.639832,812.816528 565.277283,824.599854 
	C586.562073,830.927368 608.410217,834.316711 630.444275,835.792053 
	C648.008179,836.968140 665.605896,835.581299 683.148987,833.222839 
	C711.594482,829.398804 738.793518,821.499451 764.761597,809.518860 
	C804.163391,791.340576 837.982727,765.621460 866.649170,733.016785 
	C888.586304,708.065979 906.232971,680.452820 920.005188,650.236450 
	C940.747864,604.726807 950.337524,556.855774 950.941956,507.041107 
	C951.028381,499.917694 950.375610,492.783630 950.016052,485.656952 
	C949.664917,478.698547 949.660217,471.691742 948.791565,464.795868 
	C945.605835,439.506470 940.319885,414.664246 931.773987,389.770538 
z"/>
<path fill="#AEB4B7" opacity="1.000000" stroke="none" 
	d="
M748.000000,1277.938721 
	C508.192444,1277.885620 268.884857,1277.832886 29.577301,1277.761597 
	C29.286804,1277.761475 28.996401,1277.484619 28.044050,1277.000488 
	C29.154085,1267.597412 29.967560,1257.890503 31.492798,1248.296753 
	C36.775940,1215.065796 46.684753,1183.271484 61.382011,1152.951782 
	C74.361336,1126.176147 90.027573,1101.130127 108.584038,1077.883545 
	C133.205933,1047.038452 161.344543,1019.815491 192.487823,995.577271 
	C227.070984,968.661926 264.316193,946.109131 303.781494,927.260437 
	C354.736908,902.923950 407.862488,884.614258 463.162720,873.162659 
	C489.143616,867.782593 515.423218,863.613159 541.729187,860.109436 
	C562.110046,857.394775 582.715454,855.914917 603.269653,855.069580 
	C627.379517,854.077942 651.585327,853.326538 675.672302,854.327515 
	C719.482849,856.148132 763.008362,860.943726 806.097900,869.657166 
	C863.419250,881.248535 918.795166,898.593323 971.998352,922.920471 
	C1012.891052,941.618774 1051.743530,963.867493 1087.222778,991.455750 
	C1107.010376,1006.842468 1126.158691,1023.315613 1143.929321,1040.975342 
	C1178.176636,1075.008911 1206.117432,1113.860718 1226.336426,1157.915283 
	C1239.935547,1187.546143 1249.591431,1218.419678 1254.072021,1250.803345 
	C1255.027222,1257.706787 1255.899048,1264.621704 1256.819702,1271.530029 
	C1257.616455,1277.508911 1257.240356,1277.937256 1250.951904,1277.937378 
	C1083.467896,1277.939331 915.983948,1277.938843 748.000000,1277.938721 
z"/>
<path fill="#AEB4B7" opacity="1.000000" stroke="none" 
	d="
M931.884155,390.147156 
	C940.319885,414.664246 945.605835,439.506470 948.791565,464.795868 
	C949.660217,471.691742 949.664917,478.698547 950.016052,485.656952 
	C950.375610,492.783630 951.028381,499.917694 950.941956,507.041107 
	C950.337524,556.855774 940.747864,604.726807 920.005188,650.236450 
	C906.232971,680.452820 888.586304,708.065979 866.649170,733.016785 
	C837.982727,765.621460 804.163391,791.340576 764.761597,809.518860 
	C738.793518,821.499451 711.594482,829.398804 683.148987,833.222839 
	C665.605896,835.581299 648.008179,836.968140 630.444275,835.792053 
	C608.410217,834.316711 586.562073,830.927368 565.277283,824.599854 
	C525.639832,812.816528 489.789520,793.832947 458.152222,767.279602 
	C428.708710,742.567627 404.178040,713.567871 385.021759,680.119995 
	C368.614258,651.471619 356.050598,621.229126 348.773071,589.047302 
	C344.900970,571.924316 341.991943,554.467651 340.300049,537.001526 
	C338.733765,520.832092 338.467560,504.408356 339.209656,488.168854 
	C341.107605,446.636017 350.009979,406.565582 366.323151,368.185730 
	C379.116547,338.086914 395.761841,310.346405 416.613037,285.208923 
	C441.731079,254.927536 471.391663,230.020966 505.920929,210.963867 
	C532.074829,196.529221 559.770142,186.389801 589.020508,180.521027 
	C612.095520,175.891266 635.464966,173.828094 658.943848,175.187286 
	C712.403442,178.282089 761.626160,194.524780 806.105103,224.505539 
	C848.414734,253.024063 882.129395,289.667480 906.497803,334.425079 
	C916.171936,352.193695 923.420898,371.282684 931.884155,390.147156 
z"/>
</svg>